<?xml version="1.0" encoding="utf-8"?>
<!-- Generator: Adobe Illustrator 16.0.0, SVG Export Plug-In . SVG Version: 6.00 Build 0)  -->
<!DOCTYPE svg PUBLIC "-//W3C//DTD SVG 1.1//EN" "http://www.w3.org/Graphics/SVG/1.1/DTD/svg11.dtd">
<svg version="1.1" id="Layer_1" xmlns="http://www.w3.org/2000/svg" xmlns:xlink="http://www.w3.org/1999/xlink" x="0px" y="0px"
	 width="611.834px" height="706.506px" viewBox="0.083 42.123 611.834 706.506"
	 enable-background="new 0.083 42.123 611.834 706.506" xml:space="preserve">
<polygon id="fill" fill="#120B31" points="611.917,572.024 306,748.629 0.083,572.021 0.083,218.728 306,42.123 611.917,218.728 "/>
<linearGradient id="gradient_1_" gradientUnits="userSpaceOnUse" x1="305.6709" y1="404.7256" x2="305.6709" y2="134.4175" gradientTransform="matrix(1 0 0 1 0 -80)">
	<stop  offset="0" style="stop-color:#FFFFFF;stop-opacity:0"/>
	<stop  offset="1" style="stop-color:#FFFFFF"/>
</linearGradient>
<path id="gradient" opacity="0.2" fill="url(#gradient_1_)" d="M305.591,54.417L59.22,197.048
	c36.979,74.535,133.292,127.677,246.28,127.677c113.336,0,209.895-53.47,246.621-128.366L305.591,54.417z"/>
<g id="img">
</g>
<path id="outline" fill="#DF4942" d="M587.52,204.656L356.209,71.099L306,42.123l-50.209,28.976L24.48,204.656L0.083,218.728
	v353.293l24.396,14.071l234.142,135.225L306,748.629l47.378-27.312L587.52,586.095l24.397-14.07V218.728L587.52,204.656z
	 M587.52,558.783L306,721.317L24.48,558.783v-325.15L306,71.099l0,0l281.52,162.534V558.783z"/>
<g id="text" display="none">
	<path display="inline" fill="#FFFFFF" d="M75.935,561.09v-60.881h-9.782v-9.781h9.782v-3.357c0-9.928,2.336-18.98,8.322-24.674
		c4.818-4.672,11.242-6.57,17.082-6.57c4.672,0,8.468,1.022,10.95,2.045l-1.606,9.928c-2.044-0.877-4.526-1.606-8.322-1.606
		c-10.804,0-13.724,9.636-13.724,20.439v3.796h17.082v9.781H88.782v60.881H75.935z"/>
	<path display="inline" fill="#FFFFFF" d="M144.408,562.695c-18.979,0-33.871-14.016-33.871-36.353
		c0-23.651,15.622-37.521,35.039-37.521c20.293,0,34.017,14.745,34.017,36.207c0,26.279-18.25,37.666-35.039,37.666H144.408z
		 M144.846,553.061c12.264,0,21.461-11.534,21.461-27.594c0-11.972-5.986-27.01-21.169-27.01c-15.038,0-21.607,14.016-21.607,27.447
		c0,15.477,8.76,27.156,21.169,27.156H144.846z"/>
	<path display="inline" fill="#FFFFFF" d="M195.946,512.473c0-8.321-0.146-15.475-0.584-22.045h11.242l0.584,13.869h0.438
		c3.212-9.489,11.096-15.475,19.709-15.475c1.314,0,2.336,0.146,3.504,0.438v11.972c-1.46-0.146-2.774-0.292-4.526-0.292
		c-9.052,0-15.476,6.861-17.228,16.352c-0.292,1.898-0.438,3.941-0.438,6.132v37.667H195.8L195.946,512.473z"/>
	<path display="inline" fill="#FFFFFF" d="M249.965,527.949c0.292,17.373,11.242,24.527,24.089,24.527
		c9.198,0,14.892-1.606,19.564-3.504l2.336,9.051c-4.526,2.045-12.41,4.526-23.652,4.526c-21.607,0-34.747-14.454-34.747-35.623
		c0-21.462,12.702-38.251,33.287-38.251c23.067,0,29.053,20.293,29.053,33.287c0,2.628-0.146,4.672-0.438,6.132L249.965,527.949z
		 M287.486,518.751c0.146-8.03-3.357-20.878-17.665-20.878c-13.14,0-18.688,11.973-19.709,20.878H287.486z"/>
	<path display="inline" fill="#FFFFFF" d="M366.179,558.607c-3.357,1.606-10.803,4.088-20.293,4.088
		c-21.316,0-35.186-14.453-35.186-36.207c0-21.753,14.893-37.666,37.959-37.666c7.592,0,14.309,1.897,17.813,3.795l-2.92,9.782
		c-3.066-1.606-7.885-3.358-14.893-3.358c-16.205,0-24.965,12.118-24.965,26.863c0,16.352,10.512,26.426,24.527,26.426
		c7.299,0,12.117-1.752,15.768-3.357L366.179,558.607z"/>
	<path display="inline" fill="#FFFFFF" d="M431.147,544.154c0,6.132,0.293,12.117,1.021,16.936h-11.533l-1.168-8.906h-0.438
		c-3.797,5.549-11.533,10.512-21.607,10.512c-14.309,0-21.607-10.073-21.607-20.293c0-17.082,15.184-26.426,42.484-26.279v-1.46
		c0-5.84-1.605-16.497-16.059-16.352c-6.717,0-13.578,1.897-18.543,5.256l-2.92-8.614c5.84-3.649,14.455-6.131,23.359-6.131
		c21.754,0,27.01,14.745,27.01,28.906V544.154z M418.593,525.029c-14.016-0.293-29.93,2.189-29.93,15.913
		c0,8.468,5.547,12.264,11.971,12.264c9.344,0,15.33-5.84,17.375-11.825c0.438-1.314,0.584-2.774,0.584-4.088V525.029z"/>
	<path display="inline" fill="#FFFFFF" d="M449.981,548.096c3.943,2.336,10.658,4.965,17.082,4.965
		c9.197,0,13.578-4.526,13.578-10.512c0-6.133-3.65-9.49-12.994-12.994c-12.848-4.672-18.834-11.533-18.834-20.002
		c0-11.387,9.344-20.73,24.383-20.73c7.152,0,13.432,1.897,17.227,4.379l-3.066,9.198c-2.773-1.606-7.883-4.088-14.453-4.088
		c-7.592,0-11.68,4.38-11.68,9.636c0,5.986,4.088,8.613,13.285,12.117c12.119,4.526,18.543,10.658,18.543,21.316
		c0,12.555-9.783,21.314-26.279,21.314c-7.738,0-14.893-2.043-19.855-4.963L449.981,548.096z"/>
	<path display="inline" fill="#FFFFFF" d="M525.024,473.492v16.936h18.396v9.781h-18.396v38.105c0,8.76,2.482,13.724,9.637,13.724
		c3.504,0,5.547-0.292,7.445-0.876l0.584,9.781c-2.482,0.877-6.424,1.752-11.387,1.752c-5.986,0-10.805-2.043-13.871-5.401
		c-3.504-3.942-4.963-10.22-4.963-18.542v-38.543h-10.949v-9.781h10.949v-12.994L525.024,473.492z"/>
</g>
<g>
	<path fill="#FFFFFF" d="M44.835,539.471c3.726,2.208,10.074,4.692,16.146,4.692c8.694,0,12.834-4.278,12.834-9.937
		c0-5.796-3.45-8.97-12.282-12.281c-12.144-4.416-17.802-10.902-17.802-18.906c0-10.765,8.832-19.597,23.046-19.597
		c6.762,0,12.696,1.794,16.284,4.141l-2.898,8.693c-2.622-1.518-7.452-3.863-13.662-3.863c-7.176,0-11.04,4.14-11.04,9.107
		c0,5.658,3.864,8.143,12.558,11.454c11.454,4.278,17.526,10.074,17.526,20.148c0,11.868-9.246,20.147-24.84,20.147
		c-7.314,0-14.076-1.932-18.768-4.691L44.835,539.471z"/>
	<path fill="#FFFFFF" d="M157.029,533.537c0,6.899,0.138,12.972,0.552,18.216h-10.764l-0.69-10.902h-0.276
		c-3.036,5.382-10.212,12.42-22.08,12.42c-10.488,0-23.046-5.934-23.046-29.256v-39.054h12.144v36.846
		c0,12.696,4.002,21.391,14.904,21.391c8.142,0,13.8-5.658,16.008-11.179c0.69-1.655,1.104-3.863,1.104-6.21v-40.848h12.144V533.537
		z"/>
	<path fill="#FFFFFF" d="M234.308,541.955c0,15.456-3.174,24.702-9.522,30.636c-6.624,5.935-16.008,8.004-24.426,8.004
		c-8.004,0-16.836-1.932-22.218-5.52l3.036-9.384c4.416,2.897,11.316,5.382,19.596,5.382c12.42,0,21.528-6.486,21.528-23.46v-7.314
		h-0.276c-3.588,6.21-10.902,11.178-21.252,11.178c-16.561,0-28.428-14.076-28.428-32.706c0-22.632,14.766-35.328,30.222-35.328
		c11.592,0,17.802,5.935,20.838,11.454h0.276l0.414-9.936h10.764c-0.414,4.691-0.552,10.074-0.552,18.216V541.955z M222.164,511.181
		c0-1.932-0.138-3.726-0.69-5.382c-2.208-7.176-8.004-12.972-16.974-12.972c-11.592,0-19.872,9.798-19.872,25.392
		c0,12.972,6.762,24.012,19.734,24.012c7.59,0,14.352-4.691,16.836-12.558c0.69-1.932,0.966-4.278,0.966-6.486V511.181z"/>
	<path fill="#FFFFFF" d="M254.454,505.799c0-7.866-0.138-14.628-0.552-20.838h10.626l0.552,13.109h0.414
		c3.036-8.97,10.488-14.628,18.63-14.628c1.242,0,2.208,0.139,3.312,0.414v11.316c-1.38-0.138-2.622-0.276-4.278-0.276
		c-8.556,0-14.628,6.486-16.284,15.456c-0.276,1.794-0.414,3.727-0.414,5.796v35.604h-12.144L254.454,505.799z"/>
	<path fill="#FFFFFF" d="M300.131,505.799c0-7.866-0.138-14.628-0.552-20.838h10.626l0.551,13.109h0.414
		c3.037-8.97,10.488-14.628,18.631-14.628c1.242,0,2.207,0.139,3.313,0.414v11.316c-1.381-0.138-2.623-0.276-4.279-0.276
		c-8.555,0-14.627,6.486-16.283,15.456c-0.275,1.794-0.414,3.727-0.414,5.796v35.604h-12.144L300.131,505.799z"/>
	<path fill="#FFFFFF" d="M391.349,535.745c0,5.796,0.277,11.454,0.967,16.008h-10.902l-1.104-8.418h-0.414
		c-3.588,5.244-10.902,9.936-20.424,9.936c-13.523,0-20.424-9.521-20.424-19.182c0-16.146,14.352-24.979,40.158-24.84v-1.38
		c0-5.521-1.52-15.595-15.18-15.456c-6.35,0-12.836,1.794-17.527,4.968l-2.76-8.143c5.52-3.449,13.662-5.796,22.08-5.796
		c20.563,0,25.529,13.938,25.529,27.324V535.745z M379.481,517.667c-13.248-0.276-28.291,2.069-28.291,15.042
		c0,8.004,5.244,11.592,11.316,11.592c8.832,0,14.49-5.52,16.422-11.178c0.414-1.242,0.553-2.622,0.553-3.864V517.667z"/>
	<path fill="#FFFFFF" d="M410.808,503.039c0-7.038-0.139-12.559-0.553-18.078h10.764l0.691,10.901h0.275
		c3.313-6.21,11.039-12.42,22.08-12.42c9.246,0,23.598,5.521,23.598,28.429v39.882h-12.145v-38.502
		c0-10.765-4.002-19.872-15.455-19.872c-7.867,0-14.076,5.658-16.285,12.42c-0.551,1.518-0.828,3.726-0.828,5.658v40.296h-12.143
		V503.039z"/>
	<path fill="#FFFFFF" d="M501.472,468.953v16.008h17.389v9.246h-17.389v36.018c0,8.28,2.346,12.973,9.109,12.973
		c3.311,0,5.242-0.276,7.037-0.828l0.553,9.246c-2.348,0.828-6.072,1.655-10.766,1.655c-5.656,0-10.211-1.932-13.109-5.105
		c-3.313-3.727-4.691-9.66-4.691-17.526v-36.432h-10.35v-9.246h10.35v-12.282L501.472,468.953z"/>
	<path fill="#FFFFFF" d="M530.864,539.471c3.727,2.208,10.074,4.692,16.146,4.692c8.693,0,12.834-4.278,12.834-9.937
		c0-5.796-3.449-8.97-12.281-12.281c-12.145-4.416-17.803-10.902-17.803-18.906c0-10.765,8.832-19.597,23.047-19.597
		c6.762,0,12.695,1.794,16.283,4.141l-2.898,8.693c-2.621-1.518-7.451-3.863-13.662-3.863c-7.176,0-11.039,4.14-11.039,9.107
		c0,5.658,3.863,8.143,12.559,11.454c11.453,4.278,17.525,10.074,17.525,20.148c0,11.868-9.246,20.147-24.84,20.147
		c-7.314,0-14.076-1.932-18.768-4.691L530.864,539.471z"/>
</g>
<g>
	<g>
		<path fill="#FFFFFF" d="M470.387,185.438c1.604-1.113,3.482-1.832,5.258-2.686c-2.088,4.904-3.938,10.414-8.761,13.638
			c-2.446,1.479-3.884,3.951-6.167,5.601c-1.14,0.879-2.543,1.366-3.828,2.006c-3.423,1.632-6.574,3.746-9.334,6.236
			c-0.692,0.59-1.227,1.416-2.184,1.652c-6.45,2.111-11.996,5.958-17.422,9.725c-1.285,0.595-2.774,0.714-4.058,1.336
			c-2.59,0.964-4.513,2.977-7.098,3.951c-2.464,1.077-5.284,1.384-7.627,2.68c-1.88,3.493-4.154,6.95-4.696,10.899
			c-1.579,9.313-3.721,18.579-7.159,27.461c2.517,1.036,5.152,1.795,7.728,2.698c3.989,1.02,8.583,0.241,12.125,2.609
			c3.098,2.118,7.303,2.326,10.129,4.838c1.931,1.637,2.563,4.139,2.741,6.474c0.205,4.671-2.049,9.313-5.751,12.445
			c-1.16,1-2.578,1.712-3.669,2.787c-1.179,1.157-2.146,2.479-3.143,3.766c2.006,1.926,4.92,2.961,6.398,5.365
			c9.083-0.126,17.569-4.479,26.742-3.726c7.188,0.784,14.461-0.594,21.636,0.475c4.993,0.952,10.431,1,14.822,3.702
			c2.169,1.238,3.597,3.245,4.88,5.233c-4.38-0.018-8.555-1.338-12.884-1.666c-2.974-0.416-5.823-1.579-8.872-1.446
			c-4.715,0.086-9.424-0.215-14.129-0.413c-2.75-0.108-5.477,0.376-8.218,0.307c-9.381-1.006-18.464,2.808-27.836,2.07
			c-3.287-0.964-5.932-3.121-8.824-4.781c-3.829,4.489-9.553,6.956-15.018,9.303c1.124,8.799,1.498,17.662,1.917,26.512
			c3.717-0.08,7.624-0.058,11.021,1.537c8.719,4.217,14.347,12.15,22.595,16.977c4.474,3.03,9.68,4.88,14.776,6.774
			c2.887,1.055,5.317,2.896,8.058,4.202c1.784,0.766,3.704,1.262,5.349,2.287c4.06,2.353,6.835,6.058,10.098,9.218
			c1.598,1.589,3.504,2.865,5.414,4.126c-2.494,0.35-5.025,0.357-7.523,0.616c-2.587-3.431-5.298-6.876-8.893-9.466
			c-2.35-1.87-5.579-2.101-8.369-3.133c0.185,0.42,0.555,1.256,0.741,1.676c-0.659,0.408-1.313,0.821-1.97,1.216
			c-3.476-3.401-7.887-5.804-12.421-7.775c-5.8-3.575-11.493-7.296-17.249-10.924c-2.989-1.815-5.053-4.581-7.529-6.908
			c-1.072-0.862-2.178-1.896-3.633-2.102c-1.361,0.013-1.16,1.546-1.316,2.418c-3.311-0.372-6.664-0.29-9.973,0.093
			c0.254,2.246,1.1,4.397,1.413,6.627c-0.357,6.764-1.433,13.493-3.039,20.101c-0.788,3.947,1.395,7.659,3.627,10.857
			c2.55-0.988,5.7-1.579,8.167-0.089c1.678,0.953,2.218,2.813,2.771,4.446c-4.085-0.956-8.739-0.807-12.17,1.708
			c-3.254-0.177-5.781-2.669-6.673-5.445c-0.925-2.344-0.322-4.875-0.865-7.273c-0.704,0.008-1.403,0.029-2.097,0.055
			c0.446-4.052-0.657-8.267,0.91-12.188c1.669-3.842,1.877-8.106,1.112-12.153c-0.579,2.741-0.968,5.511-1.206,8.297
			c-2.145-0.241-4.296-0.377-6.435-0.646c1.024-1.168,2.464-2.045,3.317-3.326c0.169-2.083,0.124-4.181,0.313-6.264
			c-6.567,2.441-14.087,2.67-20.77,0.486c-2.314-0.734-4.781-0.857-7.141-1.417c-2.804-2.551-4.979-5.924-5.395-9.603
			c-0.298-2.515,0.664-4.938,1.007-7.405c-2.792,0.868-5.709,1.75-8.692,1.393c-1.629-0.79-2.906-2.471-2.734-4.231
			c1.139-4.856,4.157-9.069,5.914-13.722c-0.248-0.379-0.488-0.757-0.726-1.127c-3.755,5.792-7.519,11.646-12.355,16.73
			c-0.974,0.88-0.937,2.231-1.433,3.337c-1.635,4.749-5.236,9.132-10.397,10.889c-1.18,3.208-1.631,6.593-2.04,9.95
			c-2.449,2.725-4.808,6.134-8.884,6.775c-2.131,7.673-3.78,15.458-6.201,23.061c-2.047,6.317-4.607,12.525-5.833,19.048
			c-0.748,0.113-1.497,0.215-2.242,0.322c-2.919,11.093-6.109,22.203-7.079,33.626c-0.582,4.105,3.759,7.128,3.443,11.216
			c-0.148,1.978-1.666,3.462-2.946,4.912c-0.431-1.845-0.675-3.727-1.151-5.557c-1.576-1.199-3.944-2.003-4.302-4.112
			c0.036-4.524-0.548-9.098,0.313-13.587c0.238-1.431,0.883-2.767,1.091-4.201c0.87-5.552,2.611-11.003,2.678-16.651
			c-0.479,0.183-0.946,0.376-1.416,0.574c-0.437-0.617-0.875-1.228-1.302-1.839c1.718-1.495,3.507-3.047,4.474-5.078
			c-0.027-1.909-1.082-3.857-0.316-5.731c5.685-11.544,7.317-24.386,12.794-36.002c0.638-1.134-0.094-2.376-0.208-3.547
			c-0.34-0.913,0.467-1.645,0.888-2.392c3.058-4.761,6.818-9.079,10.719-13.257c-1.773-2.704-1.398-5.963-1.235-8.973
			c-0.311,1.415-0.425,2.97-1.429,4.148c-1.742,2.114-3.665,4.292-6.384,5.352c-1.945,0.792-4.12,0.517-6.181,0.752
			c-5.477,0.492-10.941,1.719-16.472,1.178c-2.546,4.257-6.17,7.848-10.132,10.995c-5.335,5.568-11.785,10.065-18.033,14.705
			c-2.124,1.558-4.169,3.208-6.344,4.702c-5.254,3.61-10.939,6.621-16.43,9.894c-3.525,1.907-7.326,3.329-10.796,5.323
			c-2.592,1.384-4.917,3.144-7.073,5.055c-0.125-0.858-0.233-1.718-0.326-2.575c-1.657,0.49-3.35,1.012-5.112,0.957
			c-1.763,0.032-3.519-0.802-4.501-2.168c-1.921-2.534-3.841-5.089-6.185-7.309c-6.212,7.5-11.903,15.354-17.702,23.13
			c-3.413,4.193-8.239,7.091-12.938,9.895c-1.932,1.118-3.727,2.464-5.827,3.303c-5.848,2.409-12.472,2.452-18.264,5.023
			c0.236-1.305,0.425-2.614,0.655-3.921c-4.419-1.084-8.76,0.865-12.628,2.653c-0.48-0.571-0.958-1.14-1.437-1.711
			c1.85-2.204,3.793-4.853,6.974-5.376c3.458-0.503,6.892,0.499,10.237,1.201c0.738,0.178,1.501,0.013,2.244-0.077
			c3.163-0.474,6.376-0.829,9.428-1.793c3.734-1.1,6.605-3.689,9.958-5.457c1.404-0.848,3.146-1.299,4.227-2.551
			c1.538-1.785,2.262-4.003,3.389-6.004c2.588-4.501,7.658-7.274,10.002-11.924c2.29-4.439,5.317-8.522,8.685-12.308
			c-0.527-1.388-0.45-2.888,0.024-4.276c-0.294,0.112-0.878,0.333-1.174,0.443c-1.944-7.365-4.038-14.936-3.071-22.585
			c0.416-2.832,1.143-5.693,2.669-8.2c2.624-3.559,3.335-7.937,5.459-11.725c1.903-3.319,3.545-6.777,5.756-9.939
			c2.303-3.397,5.459-6.179,8.514-8.974c2.709-2.362,5.517-4.619,8.377-6.818c1.618-1.226,3.164-2.653,5.215-3.217
			c2.005-0.748,4.47-0.786,5.979-2.405c3.874-3.951,9.637-5.684,15.204-6.295c3.301-0.413,6.64-0.494,9.965-0.665
			c-3.802-4.204-7.544-8.46-11.144-12.82c-2.576-3.714-8.447-4.094-10.399-8.333c-9.594,10.601-21.924,18.569-33.923,26.613
			c-4.841,3.525-10.479,5.92-15.469,9.234c-0.622-0.732-0.866-2.333-2.169-2.08c-1.862,0.585-3.127,2.107-4.814,2.982
			c-5.664,2.92-9.928,7.573-14.174,12.007c-3.648,4.082-9.542,5.59-13.288,9.556c-1.356,1.374-1.97,3.171-2.745,4.85
			c-0.559-1.007-1.104-2.021-1.639-3.036c-3-0.229-6.012-0.195-9.011-0.376c-0.939,1.029-1.881,2.05-2.841,3.067
			c-1.491-1.12-2.806-2.834-4.904-2.887c-3.839-0.37-7.36-1.965-10.834-3.42c-1.308-2.578-2.05-5.544-4.3-7.6
			c-1.273-1.216-3.169-1.368-4.854-1.728c1.808-1.358,3.106-4.023,5.793-3.776c2.175,0.599,4.067,2.079,5.151,3.934
			c0.895,1.442,1.429,3.039,1.994,4.606c1.139,0.626,2.105,1.5,3.281,2.056c3.152,0.458,6.176,1.402,9.173,2.379
			c3.651-1.708,7.829-1.104,11.746-1.41c10.86-5.48,17.274-15.906,27.186-22.528c1.723-1.168,4.014-2.509,3.708-4.805
			c8.477-5.058,16.942-10.134,25.335-15.321c6.7-4.073,13.303-8.285,20.021-12.34c3.756-2.19,7.651-4.475,12.125-5.078
			c1.88-0.164,3.311-1.47,5.106-1.875c0.925-0.117,1.946-0.168,2.787,0.288c6.648,3.406,12.577,7.905,17.898,12.918
			c5.495,5.168,10.417,10.829,15.3,16.492c2.443,2.853,4.54,5.935,6.827,8.896c0.416-2.949,0.876-5.891,1.425-8.818
			c1.103-0.078,2.208-0.132,3.314-0.205c4.464,5.65,8.197,11.906,10.131,18.717c1.422-1.109,2.988-2.269,3.491-4.013
			c1.754-5.306,4.347-10.624,8.902-14.358c0.104-0.041,0.317-0.124,0.422-0.164c6.487-1.014,13.012-2.183,19.627-1.924
			c2.068-4.901,6.558-8.46,11.31-11.095c2.211-1.256,4.509-2.374,6.781-3.528c0.68-0.319,1.023-0.988,1.469-1.526
			c2.094-2.764,4.118-5.78,4.446-9.233c-0.048-0.447,0.351-0.684,0.7-0.901c4.29-2.646,8.488-5.458,13.038-7.719
			c2.53-1.132,5.365-0.241,8.028-0.422c3.651-0.497,7.305-0.956,10.966-1.366c1.054-4.116,2.591-8.107,3.925-12.147
			c2.154-7.565,2.754-15.449,5.194-22.953c0.813-2.498,2.831-4.411,4.792-6.185c0.77-0.648,1.332-1.627,2.429-1.824
			c2.759-0.755,5.491-1.686,7.929-3.132c1.663-0.94,3.021-2.252,4.57-3.332c6.553-4.715,14.256-7.706,21.319-11.654
			c3.314-1.981,6.109-4.712,9.768-6.198C458.431,197.495,464.115,190.973,470.387,185.438z M380.927,323.547
			c-0.69,0.329-0.952,1.096-0.946,1.775c-0.051,1.964,0.802,3.952,0.139,5.892c-1.003,3.028-2.114,6.052-3.771,8.835
			c-1.664,2.849-4.22,5.088-6.447,7.541c5.336-1.233,10.869-1.521,16.347-1.557c-0.199-8.332-0.883-16.797,1.211-24.984
			C385.211,321.701,382.924,322.358,380.927,323.547z M291.479,344.217c0.259,0.46,0.524,0.921,0.786,1.385
			c0.795-1.153,1.57-2.324,2.25-3.543C293.437,342.693,292.399,343.39,291.479,344.217z"/>
	</g>
</g>
</svg>
